<?xml version="1.0" encoding="UTF-8"?>
<svg width="1200pt" height="1200pt" version="1.1" viewBox="0 0 1200 1200" xmlns="http://www.w3.org/2000/svg">
 <g fill="#e29ca9">
  <path d="m1097.2 30h-994.47c-40.125 0-72.766 32.641-72.766 72.766v994.47c0 40.125 32.641 72.766 72.766 72.766h994.47c40.125 0 72.766-32.641 72.766-72.766v-994.47c0-40.125-32.641-72.766-72.766-72.766zm24.254 1067.2c0 13.371-10.879 24.254-24.254 24.254h-994.47c-13.379 0-24.254-10.883-24.254-24.254v-686.53h1043zm0-735.04h-1043v-259.43c0-13.371 10.879-24.254 24.254-24.254h994.47c13.379 0 24.254 10.883 24.254 24.254z"/>
  <path d="m416.75 973.07c4.7383 4.7383 10.941 7.1055 17.148 7.1055 6.207 0 12.418-2.3672 17.148-7.1055 9.4766-9.4766 9.4766-24.824 0-34.297l-172.66-172.68 172.66-172.66c9.4766-9.4766 9.4766-24.824 0-34.297-9.4766-9.4766-24.836-9.4766-34.297 0l-189.82 189.81c-4.5469 4.5469-7.1055 10.719-7.1055 17.148 0 6.4297 2.5586 12.602 7.1055 17.148z"/>
  <path d="m748.95 973.07c4.7383 4.7383 10.941 7.1055 17.148 7.1055 6.207 0 12.418-2.3672 17.148-7.1055l189.82-189.83c4.5469-4.5469 7.1055-10.719 7.1055-17.148 0-6.4297-2.5586-12.602-7.1055-17.148l-189.82-189.81c-9.4766-9.4766-24.836-9.4766-34.297 0-9.4766 9.4766-9.4766 24.824 0 34.297l172.66 172.66-172.66 172.68c-9.4766 9.4727-9.4766 24.824 0 34.297z"/>
  <path d="m267.81 220.35c0 26.211-21.246 47.457-47.457 47.457-26.211 0-47.457-21.246-47.457-47.457 0-26.211 21.246-47.457 47.457-47.457 26.211 0 47.457 21.246 47.457 47.457"/>
  <path d="m457.63 220.35c0 26.211-21.246 47.457-47.457 47.457-26.211 0-47.457-21.246-47.457-47.457 0-26.211 21.246-47.457 47.457-47.457 26.211 0 47.457 21.246 47.457 47.457"/>
  <path d="m647.46 220.35c0 26.211-21.246 47.457-47.457 47.457s-47.457-21.246-47.457-47.457c0-26.211 21.246-47.457 47.457-47.457s47.457 21.246 47.457 47.457"/>
 </g>
</svg>
