<?xml version="1.0" encoding="UTF-8"?>
<svg width="1200pt" height="1200pt" version="1.1" viewBox="0 0 1200 1200" xmlns="http://www.w3.org/2000/svg">
 <g fill="#e29ca9">
  <path d="m108 265.2v772.8c0 13.199 10.801 24 24 24h832.8v36l103.2-60-103.2-60v36h-808.8v-748.8h36l-60-103.2-60 103.2z"/>
  <path d="m297.6 918c13.199 0 24-10.801 24-24v-24h24c13.199 0 24-10.801 24-24s-10.801-24-24-24h-24v-24c0-13.199-10.801-24-24-24-13.199 0-24 10.801-24 24v24h-24c-13.199 0-24 10.801-24 24s10.801 24 24 24h24v24c0 13.199 10.797 24 24 24z"/>
  <path d="m432 744c13.199 0 24-10.801 24-24v-24h24c13.199 0 24-10.801 24-24s-10.801-24-24-24h-24v-24c0-13.199-10.801-24-24-24s-24 10.801-24 24v24h-24c-13.199 0-24 10.801-24 24s10.801 24 24 24h24v24c0 13.199 10.801 24 24 24z"/>
  <path d="m600 894c13.199 0 24-10.801 24-24v-24h24c13.199 0 24-10.801 24-24s-10.801-24-24-24h-24v-24c0-13.199-10.801-24-24-24s-24 10.801-24 24v24h-24c-13.199 0-24 10.801-24 24s10.801 24 24 24h24v24c0 13.199 10.801 24 24 24z"/>
  <path d="m696 610.8c13.199 0 24-10.801 24-24v-24h24c13.199 0 24-10.801 24-24s-10.801-24-24-24h-24v-24c0-13.199-10.801-24-24-24s-24 10.801-24 24v24h-24c-13.199 0-24 10.801-24 24s10.801 24 24 24h24v24c0 13.199 10.801 24 24 24z"/>
  <path d="m855.6 744c13.199 0 24-10.801 24-24v-24h24c13.199 0 24-10.801 24-24s-10.801-24-24-24h-24v-24c0-13.199-10.801-24-24-24-13.199 0-24 10.801-24 24v24h-24c-13.199 0-24 10.801-24 24s10.801 24 24 24h24v24c0 13.199 10.797 24 24 24z"/>
  <path d="m951.6 492c13.199 0 24-10.801 24-24v-24h24c13.199 0 24-10.801 24-24s-10.801-24-24-24h-24v-24c0-13.199-10.801-24-24-24-13.199 0-24 10.801-24 24v24h-24c-13.199 0-24 10.801-24 24s10.801 24 24 24h24v24c0 13.199 10.797 24 24 24z"/>
 </g>
</svg>
